{"title":"Life Of Pi 2012 BRRip 720p x264 AAC - PRiSTiNE [P2PDL]","uid":8205586,"size":725994306,"categoryP":"video","categoryS":"hd___movies","magnet":"?xt=urn:btih:319dc88e843ce1101fc66b9e976b14372a923470&amp;dn=Life+Of+Pi+2012+BRRip+720p+x264+AAC+-+PRiSTiNE+%5BP2PDL%5D&amp;tr=udp%3A%2F%2Ftracker.openbittorrent.com%3A80&amp;tr=udp%3A%2F%2Fopen.demonii.com%3A1337&amp;tr=udp%3A%2F%2Ftracker.coppersurfer.tk%3A6969&amp;tr=udp%3A%2F%2Fexodus.desync.com%3A6969","seeders":1,"leechers":0,"uploader":"Vitamin_X","files":-1,"time":1362115309,"description":"_________________________  Visit us at _________________________\n  &lt;a href=&quot;\nhttp://p2pdl.com&quot; rel=&quot;nofollow&quot; target=&quot;_NEW&quot;&gt;\nhttp://p2pdl.com&lt;/a&gt;  ____________________________ &lt;a href=&quot; http://p2pdl.com&quot; rel=&quot;nofollow&quot; target=&quot;_NEW&quot;&gt; http://p2pdl.com&lt;/a&gt;\n\n &lt;a href=&quot;\nhttp://www.shotpix.com/images/88480215554992046008.jpg&quot; rel=&quot;nofollow&quot; target=&quot;_NEW&quot;&gt;\nhttp://www.shotpix.com/images/88480215554992046008.jpg&lt;/a&gt;\n\nLife Of Pi 2012 BRRip 720p x264 AAC - PRiSTiNE\n\nGenre: Adventure | Drama\nPlot: A young man who survives a disaster at sea is hurtled into an epic journey of adventure and discovery. \nWhile cast away, he forms an unexpected connection with another survivor: a fearsome Bengal tiger.\nDirector: Ang Lee\nStars: Suraj Sharma, Irrfan Khan, Adil Hussain \nRated: Rated PG for emotional thematic content throughout, and some scary action sequences and peril.\n\nInfo: &lt;a href=&quot;\nhttp://www.imdb.com/title/tt0454876/&quot; rel=&quot;nofollow&quot; target=&quot;_NEW&quot;&gt;\nhttp://www.imdb.com/title/tt0454876/&lt;/a&gt;\n\nGeneral\nComplete name                  : Life Of Pi 2012 BRRip 720p x264 AAC - PRiSTiNE.mp4\nFormat                         : MPEG-4\nFormat profile                 : Base Media\nFile size                      : 683 MiB\nDuration                       : 2h 6mn\nOverall bit rate mode          : Variable\nOverall bit rate               : 752 Kbps\n\nVideo\nID                             : 1\nFormat                         : AVC\nFormat profile                 : High &lt;a class=&quot;__cf_email__&quot; href=&quot;/cdn-cgi/l/email-protection&quot; data-cfemail=&quot;3d0c0d7d7109130c&quot;&gt;[email&amp;#160;protected]&lt;/a&gt;&lt;script cf-hash='f9e31' type=&quot;text/javascript&quot;&gt;\n/* &lt;![CDATA[ */!function(){try{var t=&quot;currentScript&quot;in document?document.currentScript:function(){for(var t=document.getElementsByTagName(&quot;script&quot;),e=t.length;e--;)if(t[e].getAttribute(&quot;cf-hash&quot;))return t[e]}();if(t&amp;&amp;t.previousSibling){var e,r,n,i,c=t.previousSibling,a=c.getAttribute(&quot;data-cfemail&quot;);if(a){for(e=&quot;&quot;,r=parseInt(a.substr(0,2),16),n=2;a.length-n;n+=2)i=parseInt(a.substr(n,2),16)^r,e+=String.fromCharCode(i);e=document.createTextNode(e),c.parentNode.replaceChild(e,c)}}}catch(u){}}();/* ]]&gt; */&lt;/script&gt;\nCodec ID/Info                  : Advanced Video Coding\nWidth                          : 1 280 pixels\nHeight                         : 688 pixels\nDisplay aspect ratio           : 1.85:1\nFrame rate mode                : Constant\nFrame rate                     : 23.976 fps\nColor space                    : YUV\nChroma subsampling             : 4:2:0\nBit depth                      : 10 bits\nScan type                      : Progressive\nBits/(Pixel*Frame)             : 0.032\nStream size                    : 607 MiB (89%)\nWriting library                : x264 core 129 r2245 bc13772\n\nAudio\nFormat                         : AAC\nBit rate                       : 79.9 Kbps\nChannel(s)                     : 2 channels\nChannel positions              : Front: L R\nSampling rate                  : 48.0 KHz / 24.0 KHz\nCompression mode               : Lossy\nStream size                    : 72.5 MiB (11%)\nLanguage                       : English\n\nSubtitle                       : Yes ( English)\n\n\nScreens: &lt;a href=&quot;\nhttp://www.shotpix.com/images/01521936363221533753.jpg&quot; rel=&quot;nofollow&quot; target=&quot;_NEW&quot;&gt;\nhttp://www.shotpix.com/images/01521936363221533753.jpg&lt;/a&gt; &lt;a href=&quot;\nhttp://www.shotpix.com/images/14017408869028728065.jpg&quot; rel=&quot;nofollow&quot; target=&quot;_NEW&quot;&gt;\nhttp://www.shotpix.com/images/14017408869028728065.jpg&lt;/a&gt; &lt;a href=&quot;\nhttp://www.shotpix.com/images/37234890032535539795.jpg&quot; rel=&quot;nofollow&quot; target=&quot;_NEW&quot;&gt;\nhttp://www.shotpix.com/images/37234890032535539795.jpg&lt;/a&gt; &lt;a href=&quot;\nhttp://www.shotpix.com/images/44493550460159319220.jpg&quot; rel=&quot;nofollow&quot; target=&quot;_NEW&quot;&gt;\nhttp://www.shotpix.com/images/44493550460159319220.jpg&lt;/a&gt;\n\nThumbs: &lt;a href=&quot;\nhttp://www.shotpix.com/images/76182003557452040672.jpg&quot; rel=&quot;nofollow&quot; target=&quot;_NEW&quot;&gt;\nhttp://www.shotpix.com/images/76182003557452040672.jpg&lt;/a&gt;\n----------------------------------------------------------------------------------------------------\n\nRecommend to you to use latest version of VLC player. Install K-Lite Codec Pack or shark007 codecs\nin case of any kind of problem in playback (For non-VLC Media Player users). Alternatively, install\nCore AVC codecs, the fastest decoder that there is coupled with Community Center Codec Pack and play\non Windows Media Player Classic. Check sample to be sure.\nEnjoy!\n\nGreets to: VYTO, a2zRG, MusiK_KinG, Kuroyukihime, TorDigger, Ash968, StyLishSaLH, Masta and staff members at\nExtraTorrent, TPB, H33T, KAT, 1337x, PublicHD, Ahashare, BTScene, SilverTorrent, LimeTorrents, TorrentMafia,\nP2PDL, and all others.\n\nEncoder Notes: Looking For Early Access To Anything You Can Provide DVDScr, R5, DVDR, BluRay, Direct\nAudio, Early Music Releases, Seedboxes, Dedicated Servers anything u can provide, Advance / Promo CDs/\nDVDs. If You Got anything to offer contact me at &quot;&lt;a class=&quot;__cf_email__&quot; href=&quot;/cdn-cgi/l/email-protection&quot; data-cfemail=&quot;fb8b899cbb938e8893d5989496&quot;&gt;[email&amp;#160;protected]&lt;/a&gt;&lt;script cf-hash='f9e31' type=&quot;text/javascript&quot;&gt;\n/* &lt;![CDATA[ */!function(){try{var t=&quot;currentScript&quot;in document?document.currentScript:function(){for(var t=document.getElementsByTagName(&quot;script&quot;),e=t.length;e--;)if(t[e].getAttribute(&quot;cf-hash&quot;))return t[e]}();if(t&amp;&amp;t.previousSibling){var e,r,n,i,c=t.previousSibling,a=c.getAttribute(&quot;data-cfemail&quot;);if(a){for(e=&quot;&quot;,r=parseInt(a.substr(0,2),16),n=2;a.length-n;n+=2)i=parseInt(a.substr(n,2),16)^r,e+=String.fromCharCode(i);e=document.createTextNode(e),c.parentNode.replaceChild(e,c)}}}catch(u){}}();/* ]]&gt; */&lt;/script&gt;&quot;.","torrent":{"xt":"urn:btih:319dc88e843ce1101fc66b9e976b14372a923470","amp;dn":"Life+Of+Pi+2012+BRRip+720p+x264+AAC+-+PRiSTiNE+%5BP2PDL%5D","amp;tr":["udp%3A%2F%2Ftracker.openbittorrent.com%3A80","udp%3A%2F%2Fopen.demonii.com%3A1337","udp%3A%2F%2Ftracker.coppersurfer.tk%3A6969","udp%3A%2F%2Fexodus.desync.com%3A6969"],"infoHash":"319dc88e843ce1101fc66b9e976b14372a923470","infoHashBuffer":{"type":"Buffer","data":[49,157,200,142,132,60,225,16,31,198,107,158,151,107,20,55,42,146,52,112]},"announce":[],"urlList":[]}}